<svg width="101" height="100" viewBox="0 0 101 100" fill="none" xmlns="http://www.w3.org/2000/svg">
<g id="illu">
<path id="Vector" d="M98.0891 38.1236L94.8486 31.2485L89.2264 25.9449L86.0237 31.9722C87.4386 32.1666 88.5134 33.4088 89.1831 34.9102C89.6651 35.5033 89.8976 36.2605 89.8313 37.0219C89.9879 37.8045 90.0098 38.6082 89.8962 39.3982C89.3129 42.7845 86.4504 45.771 83.0264 44.5127C82.1941 44.5513 81.3618 44.4397 80.5691 44.1832C80.2772 44.0906 80.0018 43.952 79.7535 43.7728L73.7586 55.0441C74.4444 57.0788 74.5198 59.2699 73.9748 61.3468C73.007 62.6489 71.7942 63.7496 70.4048 64.5872C69.9272 65.0041 69.3104 65.2258 68.6767 65.2083C68.5706 65.2138 68.464 65.2138 68.3579 65.2083L64.4532 72.5533C68.3201 72.2509 72.6787 74.5678 74.0991 78.2565C75.5194 81.9452 74.5958 86.7303 72.0358 89.6521C68.5685 93.6162 58.0805 93.7458 56.1308 88.2154L50.1467 99.4706H62.6818L69.0818 98.0393L75.8327 93.9781L80.4017 88.4423L82.8048 82.4151L83.4045 76.0422V63.6529L91.9969 57.7877L96.7821 51.7173L98.6291 45.4686L98.0891 38.1236Z" fill="#A7D9DB"/>
<path id="Vector_2" d="M22.0089 53.4078C22.0089 53.4078 33.4044 63.1291 40.1121 58.7005C46.8198 54.2719 99.8063 4.63916 99.8063 4.63916L48.3699 60.4449C48.3699 60.4449 43.9789 67.4659 33.3557 64.6251C27.0044 61.0822 22.0089 53.4078 22.0089 53.4078Z" fill="#A7D9DB"/>
<path id="Vector_3" d="M61.2343 99.9999H39.9178C34.7688 100.061 29.6589 99.0989 24.8843 97.1704C20.1098 95.242 15.7655 92.3851 12.1029 88.7655C8.44044 85.1459 5.53257 80.8355 3.54801 76.0839C1.56344 71.3324 0.541473 66.2343 0.541473 61.085C0.541473 55.9356 1.56344 50.8375 3.54801 46.086C5.53257 41.3345 8.44044 37.024 12.1029 33.4043C15.7655 29.7847 20.1098 26.928 24.8843 24.9995C29.6589 23.0711 34.7688 22.1093 39.9178 22.1699H72.3222V23.2501H39.9178C34.9112 23.1903 29.9425 24.1248 25.2997 25.9993C20.6569 27.8738 16.4324 30.6512 12.8709 34.1704C9.30934 37.6896 6.48156 41.8807 4.55168 46.5008C2.6218 51.1209 1.62821 56.078 1.62821 61.085C1.62821 66.0919 2.6218 71.0491 4.55168 75.6691C6.48156 80.2892 9.30934 84.4803 12.8709 87.9995C16.4324 91.5187 20.6569 94.2961 25.2997 96.1706C29.9425 98.0452 34.9112 98.9796 39.9178 98.9198H61.2343C66.9697 98.9126 72.468 96.6308 76.5231 92.5748C80.5781 88.5188 82.8587 83.0198 82.8644 77.2845V63.3559L90.0473 58.5655C92.562 56.8927 94.6237 54.6237 96.0485 51.9606C97.4733 49.2976 98.2171 46.3233 98.2133 43.303C98.2128 38.7275 96.6482 34.2897 93.7788 30.7258C90.9094 27.1619 86.9077 24.6861 82.4378 23.7092L82.6698 22.6291C87.3803 23.6579 91.5976 26.2666 94.6213 30.0222C97.6451 33.7778 99.2936 38.4545 99.2934 43.2761C99.2979 46.4741 98.5111 49.6235 97.0034 52.4438C95.4957 55.2641 93.314 57.6677 90.6523 59.4404L83.9499 63.9068V77.2574C83.9513 83.2849 81.5595 89.0663 77.2999 93.3309C73.0404 97.5955 67.2618 99.9942 61.2343 99.9999ZM43.8333 74.4166H41.619C35.0031 74.4166 30.0074 69.664 30.0074 63.3614H31.0875C31.0875 69.0483 35.6187 73.3365 41.619 73.3365H43.8333C45.4568 73.3382 47.0598 72.9741 48.5231 72.2709C49.9864 71.5678 51.2724 70.5438 52.2854 69.2752C53.3972 67.8776 54.8109 66.7497 56.4206 65.9762C58.0303 65.2027 59.7942 64.8036 61.5801 64.8088H68.0609C69.7268 64.8088 71.3244 64.147 72.5023 62.9691C73.6802 61.7912 74.3419 60.1936 74.3419 58.5277C74.3419 56.8619 73.6802 55.2643 72.5023 54.0864C71.3244 52.9084 69.7268 52.2467 68.0609 52.2467H56.0066V51.1665H68.0501C70.0024 51.1665 71.8747 51.942 73.2552 53.3225C74.6357 54.703 75.4113 56.5754 75.4113 58.5277C75.4113 60.48 74.6357 62.3524 73.2552 63.7328C71.8747 65.1133 70.0024 65.8889 68.0501 65.8889H61.5692C59.9454 65.8848 58.3416 66.248 56.8779 66.9513C55.4142 67.6547 54.1286 68.6799 53.1171 69.9503C52.0041 71.3438 50.5915 72.4688 48.9843 73.242C47.3772 74.0152 45.6168 74.4167 43.8333 74.4166Z" fill="black"/>
<path id="Vector_4" d="M15.1879 69.3021C13.7307 69.3031 12.3057 68.872 11.0935 68.0632C9.8814 67.2544 8.93653 66.1043 8.37814 64.7583C7.81975 63.4123 7.6731 61.9309 7.95674 60.5016C8.24037 59.0723 8.94144 57.7592 9.97146 56.7284C11.0015 55.6976 12.3141 54.9955 13.7433 54.7108C15.1724 54.4261 16.6539 54.5717 18.0003 55.1291C19.3467 55.6865 20.4975 56.6307 21.3072 57.8423C22.1169 59.0538 22.549 60.4782 22.549 61.9355C22.5462 63.8874 21.7697 65.7587 20.39 67.1394C19.0103 68.5201 17.1398 69.2978 15.1879 69.3021ZM15.1879 55.6544C13.9441 55.6533 12.7278 56.0213 11.6932 56.7116C10.6586 57.402 9.85196 58.3838 9.37548 59.5327C8.89901 60.6816 8.77419 61.946 9.01658 63.166C9.25897 64.3859 9.85777 65.5065 10.7373 66.386C11.6168 67.2655 12.7374 67.8644 13.9574 68.1068C15.1774 68.3492 16.4416 68.2242 17.5905 67.7478C18.7394 67.2713 19.7213 66.4647 20.4117 65.43C21.102 64.3954 21.4699 63.1793 21.4689 61.9355C21.466 60.2705 20.8034 58.6746 19.6261 57.4973C18.4488 56.3199 16.8528 55.6573 15.1879 55.6544Z" fill="black"/>
<path id="Vector_5" d="M23.7099 52.2466C22.253 52.2466 20.8289 51.8146 19.6175 51.0051C18.406 50.1957 17.4617 49.0452 16.9042 47.6991C16.3466 46.3531 16.2006 44.8719 16.4849 43.4429C16.7691 42.0139 17.4707 40.7013 18.5009 39.6711C19.5312 38.6408 20.8438 37.9392 22.2727 37.655C23.7017 37.3707 25.1829 37.5166 26.529 38.0742C27.875 38.6318 29.0256 39.5759 29.8351 40.7874C30.6445 41.9988 31.0766 43.4231 31.0766 44.88C31.0752 46.8333 30.2986 48.7062 28.9174 50.0874C27.5362 51.4686 25.6632 52.2452 23.7099 52.2466ZM23.7099 38.599C22.4664 38.599 21.2508 38.9678 20.2169 39.6588C19.183 40.3498 18.3772 41.3319 17.9015 42.481C17.4259 43.63 17.3017 44.8943 17.5447 46.1139C17.7877 47.3335 18.387 48.4536 19.2667 49.3325C20.1464 50.2115 21.2671 50.8098 22.4869 51.0517C23.7067 51.2937 24.9708 51.1685 26.1194 50.6918C27.268 50.2152 28.2494 49.4086 28.9395 48.3741C29.6296 47.3396 29.9975 46.1236 29.9965 44.88C29.9936 43.2141 29.3303 41.6174 28.1518 40.4399C26.9734 39.2625 25.3758 38.6004 23.7099 38.599Z" fill="black"/>
<path id="Vector_6" d="M42.4722 45.4201C41.0163 45.4201 39.5929 44.9883 38.3823 44.1795C37.1718 43.3706 36.2283 42.2209 35.6712 40.8759C35.114 39.5308 34.9684 38.0507 35.2524 36.6228C35.5364 35.1948 36.2374 33.8832 37.2669 32.8537C38.2963 31.8243 39.6081 31.1231 41.036 30.8391C42.464 30.555 43.944 30.7008 45.2891 31.258C46.6342 31.8151 47.784 32.7587 48.5928 33.9692C49.4017 35.1798 49.8333 36.603 49.8333 38.0589C49.8319 40.0107 49.0559 41.8822 47.6757 43.2624C46.2955 44.6426 44.4241 45.4186 42.4722 45.4201ZM42.4722 31.7778C41.2299 31.7778 40.0155 32.1462 38.9825 32.8363C37.9496 33.5265 37.1447 34.5075 36.6693 35.6552C36.1939 36.803 36.0694 38.0658 36.3117 39.2843C36.5541 40.5027 37.1524 41.6218 38.0308 42.5002C38.9092 43.3787 40.0283 43.9769 41.2467 44.2192C42.4651 44.4616 43.7282 44.3372 44.8759 43.8618C46.0236 43.3864 47.0045 42.5814 47.6947 41.5484C48.3848 40.5155 48.7532 39.3011 48.7532 38.0589C48.7503 36.3939 48.0877 34.798 46.9104 33.6207C45.7331 32.4434 44.1372 31.7807 42.4722 31.7778Z" fill="black"/>
<path id="Vector_7" d="M23.71 86.3523C22.2543 86.3513 20.8316 85.9186 19.6217 85.1091C18.4119 84.2996 17.4693 83.1495 16.9129 81.8044C16.3566 80.4592 16.2116 78.9792 16.4963 77.5517C16.7809 76.1241 17.4826 74.813 18.5123 73.784C19.542 72.7551 20.8535 72.0545 22.2812 71.7709C23.709 71.4873 25.189 71.6334 26.5338 72.1908C27.8786 72.7481 29.0278 73.6916 29.8365 74.902C30.6451 76.1124 31.0767 77.5354 31.0767 78.9911C31.0738 80.9435 30.2966 82.815 28.9156 84.195C27.5346 85.575 25.6624 86.3509 23.71 86.3523ZM23.71 72.7101C22.468 72.7111 21.2542 73.0804 20.2219 73.7712C19.1897 74.462 18.3856 75.4434 17.9111 76.5912C17.4365 77.739 17.3129 79.0017 17.5559 80.2198C17.7988 81.4378 18.3974 82.5565 19.276 83.4344C20.1547 84.3123 21.2737 84.9099 22.4919 85.1519C23.7102 85.3938 24.9729 85.2691 26.1203 84.7935C27.2677 84.318 28.2483 83.5129 28.9383 82.4801C29.6282 81.4473 29.9965 80.2332 29.9965 78.9911C29.998 78.1644 29.8363 77.3455 29.5211 76.5812C29.2059 75.817 28.7431 75.1224 28.1593 74.537C27.5755 73.9517 26.8822 73.4872 26.1187 73.17C25.3553 72.8528 24.5367 72.6891 23.71 72.6884V72.7101Z" fill="black"/>
<path id="Vector_8" d="M42.4724 93.1787C41.0152 93.1798 39.5902 92.7487 38.3781 91.9399C37.1659 91.1311 36.2211 89.9809 35.6627 88.635C35.1043 87.289 34.9576 85.8077 35.2413 84.3783C35.5249 82.949 36.226 81.6358 37.256 80.6051C38.286 79.5743 39.5987 78.8722 41.0278 78.5875C42.4569 78.3028 43.9385 78.4484 45.2848 79.0058C46.6312 79.5632 47.782 80.5073 48.5917 81.7189C49.4014 82.9304 49.8335 84.355 49.8335 85.8122C49.8321 87.7645 49.0562 89.6366 47.6761 91.0176C46.2961 92.3987 44.4248 93.1758 42.4724 93.1787ZM42.4724 79.5311C41.2286 79.53 40.0124 79.898 38.9777 80.5883C37.9431 81.2787 37.1365 82.2604 36.66 83.4093C36.1835 84.5582 36.0587 85.8227 36.3011 87.0426C36.5435 88.2626 37.1423 89.3833 38.0218 90.2628C38.9013 91.1423 40.022 91.7411 41.2419 91.9835C42.4619 92.2258 43.7261 92.1009 44.875 91.6244C46.024 91.1479 47.0058 90.3414 47.6962 89.3068C48.3865 88.2721 48.7545 87.056 48.7534 85.8122C48.7505 84.1472 48.0879 82.5512 46.9106 81.3739C45.7333 80.1966 44.1374 79.534 42.4724 79.5311Z" fill="black"/>
<path id="Vector_9" d="M64.6478 93.1788C62.5101 93.1852 60.4185 92.5572 58.6379 91.3742C56.8574 90.1912 55.4679 88.5065 54.6454 86.5334C53.8229 84.5603 53.6044 82.3874 54.0175 80.29C54.4306 78.1926 55.4567 76.2649 56.966 74.7511C58.4753 73.2372 60.4001 72.2053 62.4962 71.7859C64.5924 71.3665 66.7657 71.5785 68.7413 72.395C70.7169 73.2116 72.4058 74.596 73.5941 76.373C74.7824 78.15 75.4168 80.2396 75.4168 82.3773C75.4169 85.2364 74.2831 87.9789 72.2645 90.0036C70.2458 92.0284 67.5069 93.1702 64.6478 93.1788ZM64.6478 72.71C62.7237 72.7036 60.841 73.2683 59.2381 74.3326C57.6352 75.3968 56.384 76.9128 55.6432 78.6886C54.9025 80.4644 54.7054 82.42 55.0768 84.3079C55.4482 86.1958 56.3714 87.931 57.7297 89.2938C59.088 90.6566 60.8203 91.5857 62.7069 91.9634C64.5936 92.3411 66.5496 92.1506 68.3279 91.4157C70.1061 90.6809 71.6263 89.4349 72.6959 87.8356C73.7655 86.2362 74.3367 84.3554 74.3367 82.4313C74.3424 79.855 73.3252 77.3816 71.5084 75.5548C69.6917 73.7279 67.2242 72.697 64.6478 72.6884V72.71Z" fill="black"/>
<path id="Vector_10" d="M83.4044 45.4201C81.9485 45.4201 80.5251 44.9883 79.3145 44.1795C78.104 43.3706 77.1605 42.2209 76.6033 40.8759C76.0462 39.5308 75.9005 38.0507 76.1846 36.6228C76.4686 35.1948 77.1696 33.8832 78.199 32.8537C79.2285 31.8243 80.5403 31.1231 81.9682 30.8391C83.3961 30.555 84.8762 30.7008 86.2213 31.258C87.5664 31.8151 88.7159 32.7587 89.5248 33.9692C90.3336 35.1798 90.7655 36.603 90.7655 38.0589C90.7626 40.0103 89.9861 41.881 88.6063 43.2608C87.2264 44.6407 85.3558 45.4172 83.4044 45.4201ZM83.4044 31.7778C82.1621 31.7778 80.9476 32.1462 79.9147 32.8363C78.8818 33.5265 78.0766 34.5075 77.6012 35.6552C77.1258 36.803 77.0015 38.0658 77.2439 39.2843C77.4862 40.5027 78.0846 41.6218 78.963 42.5002C79.8414 43.3787 80.9605 43.9769 82.1789 44.2192C83.3973 44.4616 84.6601 44.3372 85.8078 43.8618C86.9555 43.3864 87.9367 42.5814 88.6268 41.5484C89.317 40.5155 89.6854 39.3011 89.6854 38.0589C89.6825 36.3939 89.0199 34.798 87.8426 33.6207C86.6653 32.4434 85.0693 31.7807 83.4044 31.7778Z" fill="black"/>
<path id="Vector_11" d="M54.3808 54.234L46.847 44.8206L95.9937 0.761342C96.4248 0.375054 96.9584 0.121697 97.5303 0.0316625C98.1021 -0.0583717 98.6877 0.0187865 99.2167 0.253902C99.7457 0.489018 100.196 0.872053 100.512 1.35686C100.828 1.84167 100.998 2.40754 101 2.98644C100.999 3.74159 100.714 4.46875 100.201 5.02253L54.3808 54.234ZM48.3322 44.9448L54.4402 52.5814L99.4068 4.28804C99.6605 4.01653 99.8294 3.67678 99.8926 3.3106C99.9558 2.94443 99.9103 2.56779 99.7623 2.22696C99.6143 1.88614 99.37 1.59603 99.0593 1.39226C98.7485 1.18849 98.385 1.07996 98.0134 1.08003C97.5343 1.07519 97.0704 1.24842 96.7117 1.56611L48.3322 44.9448Z" fill="black"/>
<path id="Vector_12" d="M54.3808 54.234L46.847 44.8205L54.8022 37.6915L62.5629 45.447L54.3808 54.234ZM48.3322 44.9447L54.4402 52.5814L61.0616 45.474L54.7643 39.2038L48.3322 44.9447Z" fill="black"/>
<path id="Vector_13" d="M37.7411 65.8888C35.4269 65.8853 33.1467 65.3308 31.0891 64.2715C29.0315 63.2122 27.2557 61.6784 25.9083 59.7968L20.9556 52.8677H32.4053C35.4714 52.867 38.4407 51.7932 40.798 49.8325L47.6571 44.113L55.0992 53.4239L48.7802 60.8067C47.4162 62.4006 45.7234 63.6802 43.8178 64.5575C41.9121 65.4348 39.839 65.889 37.7411 65.8888ZM23.0566 53.9478L26.783 59.1703C27.9701 60.8322 29.5198 62.2023 31.3146 63.1769C33.1093 64.1514 35.1022 64.705 37.1425 64.7955C39.1828 64.886 41.2169 64.5112 43.091 63.6995C44.965 62.8877 46.6297 61.6602 47.9593 60.11L53.7113 53.3969L47.5273 45.6522L41.5164 50.6641C38.9631 52.7831 35.7502 53.9444 32.4322 53.9478H23.0566Z" fill="black"/>
<path id="Vector_14" d="M15.1823 66.942C17.9443 66.942 20.1834 64.7029 20.1834 61.9409C20.1834 59.1789 17.9443 56.9398 15.1823 56.9398C12.4203 56.9398 10.1812 59.1789 10.1812 61.9409C10.1812 64.7029 12.4203 66.942 15.1823 66.942Z" fill="#A7D9DB"/>
<path id="Vector_15" d="M42.4722 43.1193C45.2343 43.1193 47.4733 40.8803 47.4733 38.1183C47.4733 35.3562 45.2343 33.1172 42.4722 33.1172C39.7102 33.1172 37.4712 35.3562 37.4712 38.1183C37.4712 40.8803 39.7102 43.1193 42.4722 43.1193Z" fill="#A7D9DB"/>
<path id="Vector_16" d="M42.4722 90.9321C45.2969 90.9321 47.5867 88.6423 47.5867 85.8176C47.5867 82.993 45.2969 80.7031 42.4722 80.7031C39.6476 80.7031 37.3577 82.993 37.3577 85.8176C37.3577 88.6423 39.6476 90.9321 42.4722 90.9321Z" fill="#A7D9DB"/>
</g>
</svg>
